<?xml version="1.0" standalone="no"?>
<!DOCTYPE svg PUBLIC "-//W3C//DTD SVG 20010904//EN"
 "http://www.w3.org/TR/2001/REC-SVG-20010904/DTD/svg10.dtd">
<svg version="1.0" xmlns="http://www.w3.org/2000/svg"
 width="700.000000pt" height="700.000000pt" viewBox="0 0 700.000000 700.000000"
 preserveAspectRatio="xMidYMid meet">
<metadata>
Created by potrace 1.11, written by Peter Selinger 2001-2013
</metadata>
<g transform="translate(0.000000,700.000000) scale(0.100000,-0.100000)"
fill="#000000" stroke="none">
<path d="M3368 6945 c-2 -2 -37 -6 -78 -9 -171 -15 -255 -33 -615 -133 -148
-41 -324 -90 -390 -108 -202 -55 -956 -265 -1025 -285 -36 -10 -145 -41 -242
-69 -98 -28 -206 -64 -240 -80 -175 -85 -199 -197 -65 -302 43 -35 163 -99
183 -99 3 0 20 -6 37 -14 18 -8 70 -28 117 -46 47 -17 94 -36 105 -41 29 -12
202 -79 260 -99 63 -23 383 -147 410 -160 11 -5 124 -48 250 -96 127 -48 253
-96 280 -106 28 -11 77 -29 110 -42 33 -13 150 -58 260 -100 277 -108 298
-114 505 -155 160 -31 549 -34 715 -6 151 26 344 79 420 115 11 5 61 25 110
44 50 19 214 82 365 141 151 58 329 127 395 152 66 25 124 50 129 55 6 4 16 8
23 8 7 0 97 33 201 74 103 40 288 113 412 160 289 112 379 156 434 211 133
133 54 254 -224 341 -25 8 -58 18 -75 24 -66 20 -1041 312 -1055 315 -8 2
-121 36 -250 75 -129 40 -242 74 -250 76 -8 2 -85 24 -170 50 -296 89 -471
112 -827 112 -117 0 -213 -2 -215 -3z m307 -660 c188 -28 291 -143 222 -246
-27 -41 -110 -88 -187 -106 -83 -19 -260 -11 -336 16 -110 39 -172 114 -153
185 11 41 63 91 122 116 61 27 76 30 157 37 36 3 66 7 68 8 4 3 51 -1 107 -10z"/>
<path d="M410 5582 c-183 -48 -300 -184 -357 -414 -3 -13 -6 -704 -7 -1536 -1
-1121 2 -1535 11 -1595 45 -310 261 -669 522 -865 43 -33 143 -91 222 -129 79
-39 234 -115 344 -168 110 -54 297 -145 415 -203 118 -57 292 -142 385 -187
94 -45 283 -138 420 -205 373 -182 404 -196 475 -212 202 -44 369 36 455 217
64 135 60 21 60 1865 0 927 -3 1712 -7 1745 -43 366 -312 762 -604 891 -30 13
-162 65 -292 115 -753 288 -925 354 -997 381 -44 16 -89 34 -100 39 -11 4
-128 49 -260 99 -132 50 -275 105 -317 122 -100 39 -137 48 -228 53 -50 2 -96
-2 -140 -13z m477 -1268 c163 -80 240 -327 155 -494 -69 -136 -221 -155 -337
-42 -94 91 -136 225 -113 353 31 173 158 252 295 183z m696 -1200 c121 -80
183 -288 130 -437 -64 -179 -257 -202 -382 -46 -61 75 -84 143 -85 249 -1 80
3 103 23 147 62 139 184 173 314 87z m615 -1313 c75 -38 152 -138 178 -231 21
-76 8 -205 -29 -276 -36 -68 -123 -117 -192 -107 -83 12 -172 88 -220 188 -21
46 -41 140 -39 185 9 162 107 275 227 264 21 -2 55 -13 75 -23z"/>
<path d="M6400 5581 c-52 -14 -446 -166 -585 -226 -16 -7 -82 -33 -145 -58
-320 -126 -1108 -439 -1125 -446 -11 -5 -60 -25 -110 -45 -116 -48 -212 -113
-303 -206 -180 -184 -310 -462 -338 -725 -6 -58 -6 -3385 0 -3415 30 -141 44
-180 90 -250 87 -133 239 -188 404 -145 45 11 404 185 1107 535 1155 576 1116
554 1251 723 70 88 161 241 192 322 10 28 22 59 27 70 10 26 11 27 35 115 51
190 49 114 49 1780 0 1508 -1 1557 -20 1630 -41 161 -120 268 -236 323 -80 37
-195 44 -293 18z m12 -1083 c43 -19 90 -66 111 -111 56 -120 -7 -285 -143
-372 -142 -90 -319 -57 -381 72 -73 152 41 362 226 419 52 15 140 11 187 -8z
m-1283 -628 c192 -98 147 -386 -78 -497 -105 -51 -241 -34 -307 39 -65 71 -78
180 -32 279 75 164 278 251 417 179z m1337 -574 c131 -104 88 -333 -81 -441
-93 -59 -190 -74 -270 -41 -130 55 -175 200 -106 340 90 184 316 254 457 142z
m-1327 -597 c47 -26 97 -95 107 -146 30 -157 -87 -323 -256 -366 -166 -43
-303 53 -304 213 0 107 52 204 147 269 96 66 221 78 306 30z m1279 -380 c141
-69 167 -240 58 -388 -64 -87 -143 -131 -246 -138 -63 -5 -82 -2 -121 16 -203
96 -163 390 68 502 86 42 165 44 241 8z m-1293 -779 c196 -95 155 -385 -70
-495 -114 -56 -228 -43 -306 35 -204 204 110 589 376 460z"/>
</g>
</svg>
