<?xml version="1.0" encoding="utf-8"?>
<!-- Generator: Adobe Illustrator 21.0.2, SVG Export Plug-In . SVG Version: 6.00 Build 0)  -->
<svg version="1.1" id="Layer_1" xmlns="http://www.w3.org/2000/svg" xmlns:xlink="http://www.w3.org/1999/xlink" x="0px" y="0px"
	 viewBox="0 0 525 120" style="enable-background:new 0 0 525 120;" xml:space="preserve">
<style type="text/css">
	.st0{fill:#6A5ACD;}
</style>
<g>
	<g transform="translate(11.0972015741374 72) scale(1.643808300538804)">
		<path class="st0" d="M17.9-16.7L2.5-22.1c-3-1.1-5.6,0.7-5.6,3.8V2.2c0,3.1,2.6,6.7,5.5,8L18,17.1c2.9,1.3,5.2-0.2,5.2-3.4V-9.2
			C23.2-12.3,20.9-15.7,17.9-16.7z M4-8.8c-1,0.3-2.1-0.4-2.6-1.6c-0.4-1.3,0-2.5,1-2.9c1-0.3,2.1,0.4,2.6,1.6C5.4-10.4,5-9.2,4-8.8
			z M9.1-0.3C8.2,0,7-0.7,6.6-1.9c-0.4-1.3,0-2.5,1-2.9c1-0.3,2.1,0.4,2.6,1.6C10.6-1.9,10.1-0.7,9.1-0.3z M14.3,9.3
			c-1,0.3-2.1-0.4-2.6-1.6c-0.4-1.3,0-2.5,1-2.9c1-0.3,2.1,0.4,2.6,1.6C15.8,7.8,15.3,9,14.3,9.3z M46.5-22.1l-14.9,5.4
			c-3,1.1-5,4.5-5,7.6v22.9c0,3.1,2.1,4.6,5,3.4l15.2-6.9c2.9-1.3,4.8-4.9,4.8-8v-20.6C51.6-21.5,49.5-23.2,46.5-22.1z M36.8,10.4
			c-1.2,0.6-2.5,0.3-3-0.6c-0.5-0.9,0-2.2,1.2-2.8c1.2-0.6,2.5-0.3,3,0.6C38.5,8.5,37.9,9.8,36.8,10.4z M36.8,1.9
			c-1.2,0.6-2.5,0.3-3-0.6c-0.5-0.9,0-2.2,1.2-2.8c1.2-0.6,2.5-0.3,3,0.6C38.5,0.1,37.9,1.4,36.8,1.9z M36.8-6.5
			c-1.2,0.6-2.5,0.3-3-0.6c-0.5-0.9,0-2.2,1.2-2.8c1.2-0.6,2.5-0.3,3,0.6C38.5-8.3,37.9-7.1,36.8-6.5z M47,4.8
			c-1.2,0.6-2.5,0.3-3-0.6c-0.5-0.9,0-2.2,1.2-2.8c1.2-0.6,2.5-0.3,3,0.6C48.7,2.9,48.1,4.1,47,4.8z M47-2.6c-1.2,0.6-2.5,0.3-3-0.6
			c-0.5-0.9,0-2.2,1.2-2.8c1.2-0.6,2.5-0.3,3,0.6C48.7-4.4,48.1-3.1,47-2.6z M47-11c-1.2,0.6-2.5,0.3-3-0.6c-0.5-0.9,0-2.2,1.2-2.8
			c1.2-0.6,2.5-0.3,3,0.6C48.7-12.8,48.1-11.6,47-11z M45.8-24.1c3-1.1,2.9-2.6-0.1-3.4l-14.9-4.1c-3-0.8-8-0.9-11-0.1L3.9-27.6
			c-3,0.8-3.1,2.3-0.1,3.3l16,5.6c3,1,7.8,1,10.7,0L45.8-24.1z M24.8-24.8c-1.5,0-2.8-0.6-2.8-1.4c0-0.8,1.3-1.4,2.8-1.4
			s2.8,0.6,2.8,1.4C27.6-25.3,26.4-24.8,24.8-24.8z"/>
	</g>
	<g transform="translate(107.408 132.84) scale(1)">
		<path class="st0" d="M12.5-95v0.7c5.2,0.7,5.3,5.5,5.3,10v33c0,4.5-0.1,8.6-5.3,9.4v0.7H35c8,0,14.9-0.1,21.4-5.6
			c5.8-4.7,8.7-12.3,8.7-19.6c0-8.3-3.9-16.4-10.2-21.7C48.1-93.7,40.6-95,32-95H12.5z M26.8-82.6c0-5.3-0.4-8.6,6.1-8.6
			c14.3,0,22.3,12,22.3,25.6c0,12.8-7.1,20.9-20,20.9c-8.6,0-8.5-3.4-8.5-10.6L26.8-82.6L26.8-82.6z M69.7-80.4v0.7
			c4.8,0.5,4.9,5.1,4.9,9.3v19.2c0,4.3-0.1,9-4.9,9.3v0.7h18.2v-0.7C83.1-42,83-46.7,83-51.1v-30.3L69.7-80.4z M78.9-86.7
			c3.3,0,5.4-3.1,5.4-6.1s-2.4-5.8-5.5-5.8c-3.5,0-5.6,2.7-5.6,6C73.2-89.3,75.6-86.7,78.9-86.7z M132.2-52.3l-0.6-0.3
			c-2.7,5.2-8.6,8.5-14.3,8.5c-4.5,0-9-2.6-11.9-6c-2.9-3.4-4.2-7.5-4.2-11.9c0-8,4.6-16.3,13.3-16.3c6.1,0,10.7,3.5,13.4,9l0.5-0.2
			l-2.4-12.6c-1.2,0.7-2,0.9-3.4,0.9c-1.4,0-3.3-0.3-5.2-0.5c-1.9-0.1-3.9-0.4-5.8-0.4c-11.3,0-19.2,8.4-19.2,19.7
			c0,14.1,11.4,22.4,24.6,22.4c1.3,0,3.2-0.1,4.9-0.3c1.8-0.1,3.4-0.3,4.4-0.3c0.2,0,0.5,0,0.7,0.1c0.3,0,0.7,0.1,1,0.3L132.2-52.3z
			 M176.1-68.2c-2.3-8.8-10.3-14.1-19.1-14.1c-12,0-21.6,8.9-21.6,21.1c0,15.7,16.2,21.1,23,21.1c2.7,0,4.6-0.2,6.3-0.5
			c1.7-0.2,3.3-0.5,5.1-0.5c0.8,0,1.3,0,1.7,0.1c0.5,0.1,0.7,0.2,1,0.5l4.3-13.5l-0.7-0.3c-1.2,2.3-2.4,4.5-4.4,6.2
			c-2.5,2.1-6.6,4-9.9,4c-8.6,0-15.7-6.9-17.1-15.3L176.1-68.2z M144.3-62.9c-0.2-7.5,3.6-15.4,12-15.4c5.2,0,8.7,4.5,10.3,9.1
			L144.3-62.9z M199.7-66.7H199c-1.4,2.3-3.8,2.1-6.2,2.1h-7.1c-1.2,0-2.6,0.1-3.5-0.7l-3.4,9.2h0.7c1.4-2.3,3.8-2.1,6.2-2.1h7.1
			c1.2,0,2.6-0.1,3.5,0.7L199.7-66.7z M215.8-75.8h2c8.7,0,13.8,0,16.7,9.6l0.7-0.2L232-84.9l-0.7,0.2c0.1,5.4-5.2,4.9-9.1,4.9h-6.3
			v-4.7c0-6,1.9-6.9,7.5-6.9c8.5,0,17.2,3.7,20.7,12l0.7-0.2l-3.7-16.5c-1.2,1.2-2.9,1-4.5,1h-35.1v0.7c5.2,0.8,5.3,5.6,5.3,10v33
			c0,2.9,0,5.7-1.5,7.5c-1.1,1.3-3,2-3.9,2v0.7h37.6c0.7,0,1.4,0,2,0.1c0.7,0.1,1.2,0.4,1.6,1l7-20.4l-0.8-0.2
			c-5.1,10.4-12.9,15.8-24.6,15.8c-8.3,0-8.5-2.6-8.5-9L215.8-75.8L215.8-75.8z M269.4-66.7h-0.7c-1.4,2.3-3.8,2.1-6.2,2.1h-7.1
			c-1.2,0-2.6,0.1-3.5-0.7l-3.4,9.2h0.7c1.4-2.3,3.8-2.1,6.2-2.1h7.1c1.2,0,2.6-0.1,3.5,0.7L269.4-66.7z M276.5-51.3
			c0,4.5-0.1,8.7-5.3,9.5v0.7h19.7v-0.7c-5.2-0.7-5.3-4.8-5.3-10v-14.7l9.5-3.3c3.5,4.8,6.2,8.9,9.3,13.3c1.8,2.6,4.5,8.4,4.5,11.5
			c0,2-1.2,2.9-3,3.2v0.7h17.3v-0.7c-3.5-0.7-4.6-3.9-5.8-6.9c-3.4-8.7-8-17.4-14.4-24.4c5.2-2.8,11.8-6.8,11.8-13.5
			c0-5.6-3-8.4-11.8-8.4h-31.7v0.7c5.2,0.7,5.3,5.5,5.3,10L276.5-51.3L276.5-51.3z M285.5-84.4c0-1.5,0.1-4,1-5.1
			c1.5-1.8,7.1-1.8,9.4-1.8c4.8,0,9.8,0.6,9.8,6.5c0,7.6-14.4,12.8-20.3,14.4L285.5-84.4L285.5-84.4z M344.5-40.2
			c12.9,0,22.9-8.2,22.9-21.6c0-13.1-9.5-20.5-22.1-20.5c-12.8,0-22.8,8.1-22.8,21.3C322.5-48.1,332-40.2,344.5-40.2z M344.8-78.4
			c9.7,0,13.2,9.6,13.2,17.7c0,8.5-4.7,16.5-12.8,16.5c-9.8,0-13.4-10.2-13.4-18.4C331.9-70.9,335.6-78.4,344.8-78.4z M371.6-95v0.7
			c4.8,0.2,4.9,4.8,4.9,9.3v33.8c0,4.2-0.1,8.8-4.9,9.3v0.7h18.2v-0.7c-4.8-0.2-4.9-4.9-4.9-9.3v-46L371.6-95z M393.3-95v0.7
			c4.8,0.2,4.9,4.8,4.9,9.3v33.8c0,4.2-0.1,8.8-4.9,9.3v0.7h18.2v-0.7c-4.8-0.2-4.9-4.9-4.9-9.3v-46L393.3-95z"/>
	</g>
</g>
</svg>
