<?xml version="1.0" encoding="utf-8"?>
<!-- Generator: Adobe Illustrator 21.0.2, SVG Export Plug-In . SVG Version: 6.00 Build 0)  -->
<svg version="1.1" id="Layer_1" xmlns="http://www.w3.org/2000/svg" xmlns:xlink="http://www.w3.org/1999/xlink" x="0px" y="0px"
	 viewBox="0 0 300 300" style="enable-background:new 0 0 300 300;" xml:space="preserve">
<style type="text/css">
	.st0{fill:#6A5ACD;}
</style>
<g transform="translate(11.0972015741374 72) scale(1.643808300538804)">
	<path class="st0" d="M63.6,13.4L12.7-6.1C3-10-5.6-3.7-5.6,7.5v74.4c0,11.3,8.6,24.3,18,28.8l51.3,25c9.4,4.5,17.1-0.9,17.1-12.2
		V40.7C80.8,29.5,73.3,17.1,63.6,13.4z M17.5,41.9c-3.2,1.2-7-1.4-8.5-5.8c-1.4-4.5,0.2-9.1,3.3-10.3c3.2-1.2,7,1.4,8.5,5.8
		C22.3,36.1,20.9,40.7,17.5,41.9z M34.6,72.6c-3.2,1.2-7-1.4-8.5-5.8c-1.4-4.5,0.2-9.1,3.3-10.3c3.2-1.2,7,1.4,8.5,5.8
		C39.4,66.9,37.8,71.4,34.6,72.6z M51.7,107.5c-3.2,1.2-7-1.4-8.5-5.8c-1.4-4.5,0.2-9.1,3.3-10.3c3.2-1.2,7,1.4,8.5,5.8
		C56.4,101.8,54.8,106.3,51.7,107.5z M157.9-6.1l-49.3,19.6C98.9,17.3,92,29.5,92,40.8v82.8c0,11.3,7,16.8,16.4,12.2l50.2-25
		c9.4-4.5,15.9-17.6,15.9-29V7.5C174.6-3.9,167.6-10,157.9-6.1z M125.6,111.2c-3.8,2.3-8.1,1.2-9.7-2.1c-1.6-3.3,0.2-7.9,4-10
		c3.8-2.3,8.1-1.2,9.7,2.1S129.5,109.1,125.6,111.2z M125.6,80.8c-3.8,2.3-8.1,1.2-9.7-2.1c-1.6-3.3,0.2-7.9,4-10
		c3.8-2.3,8.1-1.2,9.7,2.1S129.5,78.7,125.6,80.8z M125.6,50.4c-3.8,2.3-8.1,1.2-9.7-2.1s0.2-7.9,4-10c3.8-2.3,8.1-1.2,9.7,2.1
		S129.5,48.3,125.6,50.4z M159.3,90.9c-3.8,2.3-8.1,1.2-9.7-2.1s0.2-7.9,4-10c3.8-2.3,8.1-1.2,9.7,2.1
		C164.9,84.1,163.1,88.7,159.3,90.9z M159.3,64.6c-3.8,2.3-8.1,1.2-9.7-2.1s0.2-7.9,4-10c3.8-2.3,8.1-1.2,9.7,2.1
		C164.9,57.9,163.1,62.5,159.3,64.6z M159.3,34.2c-3.8,2.3-8.1,1.2-9.7-2.1c-1.6-3.3,0.2-7.9,4-10c3.8-2.3,8.1-1.2,9.7,2.1
		S163.1,32.1,159.3,34.2z M155.5-13.3c9.7-3.8,9.6-9.3-0.5-12.2l-49-14.7c-9.9-3-26.3-3.1-36.4-0.3L17.2-25.9
		C7.2-23.1,7-17.7,16.7-14L69.5,6.3c9.7,3.7,25.7,3.7,35.4,0L155.5-13.3z M86.3-15.6c-5.1,0-9.2-2.1-9.2-4.9s4.1-4.9,9.2-4.9
		s9.2,2.1,9.2,4.9S91.4-15.6,86.3-15.6z"/>
</g>
</svg>
